IKResults
version=1
nRows=46
nColumns=24
inDegrees=yes

Units are S.I. units (second, meters, Newtons, ...)
If the header above contains a line with 'inDegrees', this indicates whether rotational values are in degrees (yes) or radians (no).

endheader
time	pelvis_tilt	pelvis_list	pelvis_rotation	pelvis_tx	pelvis_ty	pelvis_tz	hip_flexion_r	hip_adduction_r	hip_rotation_r	knee_angle_r	ankle_angle_r	subtalar_angle_r	mtp_angle_r	hip_flexion_l	hip_adduction_l	hip_rotation_l	knee_angle_l	ankle_angle_l	subtalar_angle_l	mtp_angle_l	lumbar_extension	lumbar_bending	lumbar_rotation
8.300000	11.367071	1.060716	-179.421389	0.299681	0.683380	-1.228686	56.806242	-22.918340	-17.662057	-78.398132	27.892191	5.973851	0.000000	57.918893	-28.629525	-18.161748	-77.486068	25.613916	13.399886	0.000000	-8.373587	0.621791	5.306015
8.305000	11.379153	1.056359	-179.470811	0.298897	0.688274	-1.228661	56.133897	-22.711921	-17.914358	-77.274022	27.369524	5.963362	0.000000	57.159916	-28.449877	-18.533617	-76.382562	25.137804	13.343520	0.000000	-8.213863	0.642622	5.311721
8.310000	11.383367	1.030876	-179.473883	0.298148	0.693152	-1.228620	55.438983	-22.546871	-18.180404	-76.147053	26.852418	5.932477	0.000000	56.395274	-28.204203	-18.886288	-75.248969	24.668997	13.304041	0.000000	-8.072447	0.627262	5.311904
8.315000	11.394813	1.026192	-179.509417	0.297376	0.697988	-1.228673	54.738668	-22.312536	-18.423105	-74.981403	26.353805	5.893934	0.000000	55.648841	-27.995504	-19.219264	-74.119114	24.176981	13.235051	0.000000	-7.927885	0.633430	5.317231
8.320000	11.389511	1.006731	-179.515624	0.296577	0.702778	-1.228690	54.005620	-22.115937	-18.656494	-73.796611	25.924215	5.944074	0.000000	54.881284	-27.747019	-19.549495	-72.973749	23.735265	13.210699	0.000000	-7.794758	0.628184	5.301672
8.325000	11.385613	0.988209	-179.525722	0.295802	0.707508	-1.228675	53.311596	-21.923340	-18.891090	-72.657674	25.352228	5.932103	0.000000	54.126039	-27.494387	-19.869860	-71.828539	23.251574	13.156022	0.000000	-7.675854	0.612782	5.337215
8.330000	11.406651	1.007310	-179.567436	0.295008	0.712209	-1.228678	52.618476	-21.675643	-19.160911	-71.475019	24.887249	5.920216	0.000000	53.391741	-27.270539	-20.141051	-70.632628	22.833505	13.071615	0.000000	-7.518861	0.654591	5.371266
8.335000	11.443721	1.051320	-179.647439	0.294079	0.716864	-1.228499	51.943993	-21.395640	-19.407865	-70.293062	24.358462	5.926002	0.000000	52.676428	-27.084567	-20.446776	-69.480669	22.313013	12.916934	0.000000	-7.328729	0.750821	5.427945
8.340000	11.402155	0.992432	-179.640542	0.293337	0.721503	-1.228514	51.229978	-21.230804	-19.605689	-69.153857	23.830064	5.873160	0.000000	51.890554	-26.756314	-20.733459	-68.318069	21.761898	12.752424	0.000000	-7.255005	0.691747	5.413313
8.345000	11.423907	1.007262	-179.698534	0.292454	0.726137	-1.228467	50.528006	-20.946338	-19.802023	-67.923900	23.302553	5.909251	0.000000	51.187979	-26.536095	-21.002443	-67.231654	21.153252	12.614981	0.000000	-7.095496	0.739168	5.428431
8.350000	11.368862	0.968832	-179.660919	0.291654	0.730729	-1.228515	49.764280	-20.775367	-20.042138	-66.744723	22.764466	5.875672	0.000000	50.389480	-26.186348	-21.238845	-66.000172	20.706592	12.501036	0.000000	-7.023999	0.706275	5.300995
8.355000	11.391773	0.977227	-179.713510	0.290740	0.735272	-1.228439	49.071949	-20.497949	-20.238942	-65.511791	22.215019	5.858718	0.000000	49.668023	-25.933831	-21.494924	-64.829472	20.201343	12.364747	0.000000	-6.855520	0.743737	5.358283
8.360000	11.338544	0.960744	-179.694020	0.289906	0.739765	-1.228497	48.317054	-20.290867	-20.476487	-64.331313	21.694870	5.811260	0.000000	48.900508	-25.605067	-21.684375	-63.648224	19.659092	12.173261	0.000000	-6.797521	0.707504	5.368814
8.365000	11.293906	0.947814	-179.736004	0.288963	0.744251	-1.228417	47.568013	-20.046420	-20.677154	-63.117583	21.166879	5.785914	0.000000	48.102551	-25.319340	-21.936875	-62.462660	19.139961	12.000648	0.000000	-6.708503	0.717671	5.384961
8.370000	11.295214	0.945166	-179.766645	0.288063	0.748606	-1.228409	46.870741	-19.801507	-20.901374	-61.913467	20.614995	5.724781	0.000000	47.384321	-25.022612	-22.130846	-61.285879	18.571728	11.795794	0.000000	-6.567939	0.725738	5.382695
8.375000	11.281480	0.926568	-179.813073	0.287093	0.752936	-1.228386	46.144558	-19.546190	-21.082939	-60.672677	20.054553	5.708116	0.000000	46.620325	-24.730404	-22.370304	-60.087636	18.033311	11.625566	0.000000	-6.438913	0.726709	5.401797
8.380000	11.279536	0.917638	-179.822952	0.286184	0.757194	-1.228366	45.435040	-19.310390	-21.301343	-59.445150	19.481714	5.656205	0.000000	45.900585	-24.398393	-22.532212	-58.875948	17.485281	11.419640	0.000000	-6.297978	0.735065	5.347361
8.385000	11.211352	0.896009	-179.852039	0.285191	0.761482	-1.228365	44.668384	-19.077073	-21.497946	-58.236501	18.919909	5.632772	0.000000	45.096250	-24.096679	-22.756798	-57.681359	16.944126	11.262503	0.000000	-6.236077	0.718242	5.342793
8.390000	11.213939	0.898698	-179.905590	0.284221	0.765643	-1.228346	43.977665	-18.802306	-21.683411	-57.009634	18.351033	5.602602	0.000000	44.379193	-23.809975	-22.930163	-56.489562	16.402634	11.065816	0.000000	-6.102838	0.726646	5.400267
8.395000	11.173265	0.909599	-179.939940	0.283209	0.769788	-1.228374	43.219218	-18.533868	-21.916142	-55.766248	17.778032	5.570096	0.000000	43.623353	-23.519137	-23.102870	-55.273698	15.835241	10.812715	0.000000	-6.006760	0.748906	5.356714
8.400000	11.159632	0.888167	-179.978058	0.282195	0.773799	-1.228392	42.496782	-18.288705	-22.101674	-54.511961	17.224232	5.592020	0.000000	42.886024	-23.197600	-23.282257	-54.062107	15.302005	10.568018	0.000000	-5.874417	0.735547	5.362977
8.405000	11.135895	0.901958	-180.035200	0.281147	0.777730	-1.228404	41.764572	-18.005042	-22.306935	-53.260151	16.639925	5.590334	0.000000	42.145612	-22.917084	-23.442120	-52.858348	14.762850	10.325079	0.000000	-5.748726	0.759157	5.402485
8.410000	11.063832	0.856649	-180.053110	0.280164	0.781619	-1.228479	41.004102	-17.802833	-22.517090	-52.041294	16.108480	5.584992	0.000000	41.365883	-22.573751	-23.612613	-51.658296	14.189764	10.097167	0.000000	-5.694102	0.702237	5.383343
8.415000	11.067120	0.881442	-180.152023	0.279015	0.785412	-1.228366	40.312401	-17.513649	-22.732729	-50.804509	15.528620	5.628566	0.000000	40.646163	-22.309587	-23.774612	-50.461584	13.633211	9.794927	0.000000	-5.527839	0.772513	5.444383
8.420000	11.028252	0.855959	-180.214805	0.277924	0.789136	-1.228327	39.593607	-17.278414	-22.927603	-49.587843	14.974697	5.636684	0.000000	39.888065	-21.990832	-23.945473	-49.262517	13.066829	9.514825	0.000000	-5.424413	0.750325	5.519939
8.425000	11.008975	0.859262	-180.289455	0.276842	0.792734	-1.228324	38.889629	-17.018010	-23.161409	-48.366486	14.394903	5.655142	0.000000	39.168040	-21.707438	-24.092876	-48.078363	12.529192	9.253062	0.000000	-5.286454	0.769599	5.561791
8.430000	10.927009	0.836740	-180.312322	0.275782	0.796256	-1.228447	38.113243	-16.787068	-23.357185	-47.144983	13.868678	5.726962	0.000000	38.403039	-21.390017	-24.216608	-46.907164	11.998217	9.045911	0.000000	-5.227944	0.728893	5.539765
8.435000	10.802640	0.743501	-180.284945	0.274433	0.799837	-1.228017	37.263142	-16.720275	-23.642271	-45.925587	13.330835	5.880452	0.000000	37.556283	-20.911608	-24.315884	-45.694395	11.511968	8.750518	0.000000	-5.176725	0.692188	5.456106
8.440000	10.839482	0.844956	-180.417884	0.273489	0.803007	-1.228431	36.643621	-16.289108	-23.826537	-44.710306	12.795354	5.917503	0.000000	36.931306	-20.788332	-24.444147	-44.506787	10.934514	8.471207	0.000000	-4.987828	0.753278	5.562706
8.445000	10.881578	0.904744	-180.531037	0.272325	0.806206	-1.228344	36.013809	-15.968783	-24.066852	-43.490077	12.214323	5.979297	0.000000	36.298344	-20.562957	-24.532171	-43.352230	10.410385	8.167127	0.000000	-4.762622	0.854410	5.645885
8.450000	10.867218	0.934241	-180.610922	0.271213	0.809306	-1.228336	35.338251	-15.687004	-24.303099	-42.302241	11.660243	6.026987	0.000000	35.622600	-20.320345	-24.644598	-42.219477	9.889883	7.934304	0.000000	-4.600498	0.909363	5.644338
8.455000	10.861606	0.944148	-180.692591	0.270113	0.812301	-1.228365	34.669720	-15.407913	-24.494171	-41.088917	11.105743	6.113777	0.000000	34.948445	-20.043066	-24.726841	-41.066816	9.381236	7.668211	0.000000	-4.439001	0.931533	5.679791
8.460000	10.847795	0.956726	-180.753722	0.269012	0.815181	-1.228370	33.991820	-15.146441	-24.723119	-39.888485	10.562422	6.225927	0.000000	34.289246	-19.787568	-24.845839	-39.954123	8.873991	7.469217	0.000000	-4.282933	0.960389	5.693394
8.465000	10.821948	1.011294	-180.827819	0.267882	0.818013	-1.228467	33.301427	-14.832658	-24.970235	-38.696968	10.015226	6.324146	0.000000	33.623838	-19.571811	-24.914012	-38.834092	8.331474	7.178128	0.000000	-4.150996	1.003001	5.772343
8.470000	10.828449	1.027968	-180.911701	0.266804	0.820667	-1.228480	32.685666	-14.558574	-25.178626	-37.550052	9.501544	6.397453	0.000000	32.999710	-19.336075	-25.034494	-37.747766	7.833717	6.949806	0.000000	-3.977082	1.039672	5.766257
8.475000	10.760951	1.040373	-180.963799	0.265702	0.823287	-1.228559	31.981045	-14.300134	-25.406070	-36.408733	9.014693	6.503617	0.000000	32.318667	-19.089245	-25.124052	-36.682455	7.322888	6.683836	0.000000	-3.895120	1.031413	5.824981
8.480000	10.735097	1.078707	-181.028777	0.264615	0.825784	-1.228600	31.320942	-14.013246	-25.619556	-35.264654	8.517726	6.641785	0.000000	31.686812	-18.870002	-25.204734	-35.627106	6.838711	6.425078	0.000000	-3.754034	1.088207	5.794248
8.485000	10.692763	1.091065	-181.085265	0.263477	0.828211	-1.228628	30.636747	-13.747587	-25.800097	-34.107386	8.016680	6.768925	0.000000	31.042117	-18.641705	-25.339765	-34.605039	6.380668	6.238248	0.000000	-3.630502	1.104701	5.801631
8.490000	10.730571	1.130889	-181.201716	0.262312	0.830463	-1.228535	30.052394	-13.433096	-25.952616	-32.944729	7.506901	6.860305	0.000000	30.463335	-18.434159	-25.445264	-33.571666	5.943808	5.957128	0.000000	-3.418881	1.181540	5.920539
8.495000	10.682394	1.147368	-181.233761	0.261330	0.832638	-1.228655	29.410904	-13.171847	-26.165669	-31.864923	7.027285	6.891776	0.000000	29.870272	-18.211479	-25.506644	-32.624599	5.437220	5.681081	0.000000	-3.322798	1.181435	5.912993
8.500000	10.667973	1.158346	-181.335045	0.260253	0.834693	-1.228608	28.835272	-12.907304	-26.334519	-30.810953	6.546919	6.899951	0.000000	29.271957	-17.991809	-25.619713	-31.639249	4.970951	5.374773	0.000000	-3.174673	1.220186	5.971481
8.505000	10.694340	1.215879	-181.443384	0.259054	0.836633	-1.228625	28.272087	-12.576433	-26.463315	-29.716771	6.080483	6.946049	0.000000	28.716363	-17.828697	-25.720631	-30.646786	4.538485	5.099955	0.000000	-2.960565	1.301991	6.046948
8.510000	10.633609	1.248623	-181.471788	0.258089	0.838495	-1.228691	27.641932	-12.309020	-26.649769	-28.677897	5.635999	6.971635	0.000000	28.147397	-17.643141	-25.798990	-29.746219	4.122401	4.916409	0.000000	-2.876379	1.322553	6.060499
8.515000	10.671685	1.259813	-181.540773	0.257016	0.840169	-1.228679	27.124978	-12.045339	-26.746667	-27.631324	5.182239	7.002400	0.000000	27.656731	-17.441465	-25.925645	-28.859737	3.717781	4.689058	0.000000	-2.661320	1.355365	6.088583
8.520000	10.606129	1.290490	-181.556931	0.256020	0.841818	-1.228883	26.526229	-11.777106	-26.905972	-26.661284	4.774284	6.973338	0.000000	27.080925	-17.250298	-25.969286	-27.925961	3.338463	4.499194	0.000000	-2.577623	1.354510	6.068218
8.525000	10.581452	1.304757	-181.622939	0.255045	0.843350	-1.228833	26.007124	-11.527409	-27.000366	-25.721072	4.356412	6.953252	0.000000	26.542781	-17.050468	-26.079230	-27.032504	2.934858	4.240306	0.000000	-2.452079	1.390304	6.101729
